<?xml version="1.0" standalone="no"?>
<!DOCTYPE svg PUBLIC "-//W3C//DTD SVG 20010904//EN"
 "http://www.w3.org/TR/2001/REC-SVG-20010904/DTD/svg10.dtd">
<svg version="1.0" xmlns="http://www.w3.org/2000/svg"
 width="500.000000pt" height="500.000000pt" viewBox="0 0 500.000000 500.000000"
 preserveAspectRatio="xMidYMid meet">

<g transform="translate(0.000000,500.000000) scale(0.100000,-0.100000)"
fill="#FFFFFF" stroke="none">
<path d="M0 2500 l0 -2500 2500 0 2500 0 0 2500 0 2500 -2500 0 -2500 0 0
-2500z m1930 780 c0 -5 -20 -10 -45 -10 -41 0 -45 -2 -45 -24 0 -21 5 -25 38
-28 20 -2 37 -7 37 -13 0 -5 -17 -11 -37 -13 -33 -3 -38 -7 -38 -28 0 -22 4
-24 45 -24 25 0 45 -4 45 -10 0 -5 -25 -10 -55 -10 l-55 0 0 85 0 85 55 0 c30
0 55 -4 55 -10z m160 0 c15 -10 13 -11 -30 -13 -39 -3 -37 -33 4 -52 54 -26
60 -79 10 -91 -30 -8 -78 11 -68 27 4 8 9 8 17 0 15 -15 54 -14 60 2 7 19 -3
32 -40 51 -35 17 -44 51 -21 74 14 14 47 15 68 2z m210 0 c0 -5 -13 -10 -30
-10 l-30 0 0 -75 c0 -43 -4 -75 -10 -75 -6 0 -10 32 -10 75 l0 75 -30 0 c-16
0 -30 5 -30 10 0 6 30 10 70 10 40 0 70 -4 70 -10z m315 -24 c17 -26 8 -65
-22 -98 -15 -17 -14 -18 15 -18 18 0 32 -4 32 -10 0 -5 -25 -10 -56 -10 l-56
0 36 41 c42 46 48 94 11 94 -15 0 -21 -8 -23 -33 -4 -38 -22 -33 -22 7 0 53
56 71 85 27z m176 5 c50 -40 20 -141 -42 -141 -36 0 -59 33 -59 82 0 67 53 98
101 59z m160 9 c26 -14 25 -64 -2 -101 l-20 -29 25 0 c14 0 26 -4 26 -10 0 -5
-23 -10 -51 -10 l-51 0 36 42 c38 44 47 85 21 94 -22 9 -47 -15 -40 -37 4 -11
2 -19 -4 -19 -19 0 -23 41 -5 61 19 21 36 24 65 9z m186 -87 c15 -11 15 -13 0
-19 -10 -3 -17 -15 -17 -25 0 -10 -4 -19 -10 -19 -5 0 -10 9 -10 20 0 16 -7
20 -30 20 -16 0 -30 3 -30 6 0 4 17 29 38 56 l37 49 3 -38 c2 -21 10 -44 19
-50z m-777 -53 c0 -5 -4 -10 -10 -10 -5 0 -10 5 -10 10 0 6 5 10 10 10 6 0 10
-4 10 -10z m1705 -285 c41 -18 81 -58 107 -108 32 -60 33 -203 1 -262 -59
-110 -189 -156 -298 -106 -90 41 -127 103 -133 223 -4 80 -2 93 23 143 55 114
183 160 300 110z m-2161 -87 c20 -57 58 -164 84 -238 37 -106 51 -136 67 -138
11 -2 24 -8 30 -13 5 -5 -28 -9 -84 -9 -59 0 -90 4 -86 10 3 6 15 10 27 10 15
0 18 4 13 18 -4 9 -16 43 -27 75 l-20 57 -79 0 -80 0 -19 -42 c-10 -24 -22
-55 -25 -70 -6 -23 -3 -28 19 -34 47 -11 27 -24 -39 -24 -65 0 -86 12 -40 24
31 8 35 16 130 269 43 114 81 207 85 207 4 0 24 -46 44 -102z m-850 82 c47
-17 66 -46 66 -98 0 -54 -21 -85 -72 -106 l-29 -13 38 -11 c58 -17 96 -62 97
-115 1 -51 -21 -89 -67 -114 -25 -14 -63 -18 -186 -21 -109 -3 -151 -1 -147 7
4 6 18 11 32 11 l24 0 0 224 0 223 -32 11 c-27 8 -5 10 109 11 78 1 153 -3
167 -9z m536 -61 c0 -86 -13 -87 -45 -4 l-22 60 -91 3 -92 3 0 -111 0 -110 40
0 c37 0 40 3 59 45 11 25 22 45 25 45 3 0 6 -45 6 -100 0 -55 -3 -100 -7 -100
-5 0 -16 20 -26 45 -18 42 -21 45 -58 45 l-39 0 0 -110 0 -110 98 0 97 0 23
65 c13 36 28 65 33 65 5 0 9 -34 9 -75 l0 -75 -196 0 c-127 0 -193 3 -189 10
3 6 17 10 31 10 l24 0 0 224 0 223 -32 11 c-26 8 11 10 160 11 l192 1 0 -71z
m755 -100 c66 -94 123 -173 128 -175 4 -3 7 66 7 154 l0 159 -27 14 -28 13 32
4 c18 2 50 2 70 0 l38 -4 -32 -13 -33 -13 0 -229 c0 -126 -4 -229 -8 -229 -5
0 -71 88 -148 196 -76 109 -144 204 -151 213 -10 13 -12 -24 -13 -179 l0 -196
33 -14 32 -14 -37 -3 c-21 -3 -55 -3 -75 -1 l-38 3 33 18 32 18 0 208 0 209
-30 11 c-45 15 -36 21 33 21 l62 -1 120 -170z m773 139 c83 -56 123 -183 92
-295 -18 -61 -89 -137 -145 -152 -51 -14 -319 -15 -310 -1 3 6 17 10 31 10
l24 0 0 224 0 223 -32 11 c-26 8 3 10 133 9 162 -2 166 -3 207 -29z m451 16
c50 -20 71 -51 71 -108 0 -53 -30 -94 -80 -111 l-33 -11 36 -22 c41 -24 63
-64 72 -134 7 -57 24 -74 56 -58 17 10 20 9 17 -2 -7 -22 -56 -40 -88 -33 -38
8 -50 31 -66 124 -16 93 -35 114 -101 115 l-48 1 0 -105 c0 -97 2 -105 20
-108 11 -2 24 -8 30 -13 5 -5 -29 -9 -85 -9 -56 0 -90 4 -85 9 6 5 19 11 30
13 19 3 20 12 23 224 l2 221 -32 10 c-27 9 -10 11 94 12 95 1 138 -3 167 -15z
m986 2 c49 -21 75 -68 75 -138 0 -50 -4 -62 -31 -92 -35 -41 -79 -56 -162 -56
l-58 0 3 -82 c3 -74 5 -83 23 -86 11 -2 24 -8 30 -13 5 -5 -29 -9 -85 -9 -56
0 -90 4 -85 9 6 5 19 11 30 13 19 3 20 12 23 224 l2 221 -32 10 c-27 9 -8 11
100 12 95 1 142 -3 167 -13z m-1929 -807 c-20 -16 -26 -29 -26 -60 0 -33 3
-39 23 -40 l22 -2 -22 -4 c-21 -4 -23 -10 -23 -59 0 -30 -4 -54 -10 -54 -5 0
-10 25 -10 55 0 37 -4 55 -12 55 -10 0 -10 2 -1 8 6 4 14 25 18 47 8 44 30 75
53 75 9 0 5 -8 -12 -21z m-301 0 c17 -7 16 -9 -10 -8 -63 2 -77 -2 -106 -30
-43 -43 -40 -92 6 -138 33 -33 39 -35 83 -29 32 4 42 3 32 -4 -23 -15 -79 -12
-111 7 -47 28 -66 103 -39 153 25 47 97 71 145 49z m171 -110 c4 -8 9 -7 15 2
5 9 9 -11 9 -51 0 -40 -4 -60 -9 -51 -6 9 -11 10 -15 2 -12 -18 -64 -13 -86 9
-40 40 -12 100 45 100 19 0 37 -5 41 -11z m289 -9 c17 -19 17 -20 -16 -33 -19
-8 -42 -17 -53 -21 -31 -11 1 -39 36 -32 18 3 27 2 23 -4 -10 -16 -57 -12 -77
7 -10 9 -18 27 -18 41 0 56 68 83 105 42z"/>
<path d="M2725 3244 c-21 -21 -16 -83 8 -98 27 -17 51 5 55 48 5 58 -28 85
-63 50z"/>
<path d="M3086 3201 c-4 -7 -5 -15 -2 -18 9 -9 19 4 14 18 -4 11 -6 11 -12 0z"/>
<path d="M3900 2833 c-56 -29 -82 -88 -88 -197 -6 -119 13 -191 63 -234 81
-72 186 -44 230 60 20 49 21 245 1 291 -35 83 -129 120 -206 80z"/>
<path d="M1788 2643 l-35 -98 70 -3 c38 -2 71 -1 73 1 5 5 -60 197 -67 197 -3
0 -22 -44 -41 -97z"/>
<path d="M880 2735 l0 -105 54 0 c70 0 105 27 112 85 11 81 -34 125 -126 125
l-40 0 0 -105z"/>
<path d="M880 2496 l0 -116 71 0 c65 0 73 2 100 29 25 25 29 37 29 85 0 43 -5
61 -24 83 -21 25 -31 28 -100 31 l-76 4 0 -116z"/>
<path d="M2880 2610 l0 -232 89 4 c103 4 128 19 157 93 24 65 17 253 -12 291
-41 55 -70 69 -155 73 l-79 3 0 -232z"/>
<path d="M3408 2834 c-12 -12 -10 -212 2 -219 19 -12 112 7 131 26 40 40 33
149 -11 177 -26 16 -112 27 -122 16z"/>
<path d="M4387 2833 c-4 -3 -7 -64 -7 -135 l0 -128 55 0 c65 0 99 18 114 62
28 80 3 170 -53 193 -37 16 -98 20 -109 8z"/>
<path d="M2422 1908 c-19 -19 -15 -66 7 -78 31 -16 49 -12 67 15 15 23 15 27
0 50 -18 27 -54 33 -74 13z"/>
<path d="M2706 1898 c-21 -30 -13 -34 34 -18 32 10 38 16 29 27 -17 20 -46 16
-63 -9z"/>
</g>
</svg>
