<?xml version="1.0" standalone="no"?>
<!DOCTYPE svg PUBLIC "-//W3C//DTD SVG 20010904//EN"
 "http://www.w3.org/TR/2001/REC-SVG-20010904/DTD/svg10.dtd">
<svg version="1.0" xmlns="http://www.w3.org/2000/svg"
 width="900.000000pt" height="324.000000pt" viewBox="0 0 900.000000 324.000000"
 preserveAspectRatio="xMidYMid meet">
<metadata>
Created by potrace 1.10, written by Peter Selinger 2001-2011
</metadata>
<g transform="translate(0.000000,324.000000) scale(0.100000,-0.100000)"
fill="#000000" stroke="none">
<path d="M1547 2298 c-16 -12 -17 -49 -15 -588 l3 -575 269 -3 c227 -2 278 0
320 14 69 22 139 68 180 117 l33 40 64 -65 c70 -70 105 -92 189 -115 69 -18
136 -19 220 -2 96 19 147 45 209 107 l55 55 40 -48 c115 -136 310 -168 455
-73 45 30 56 28 63 -7 3 -19 11 -20 128 -20 l125 0 3 349 c2 249 -1 353 -9
362 -8 10 -41 14 -125 14 -105 0 -114 -2 -128 -22 l-15 -22 -65 32 c-59 29
-75 32 -157 32 -81 0 -98 -3 -154 -30 -59 -28 -101 -66 -152 -135 l-22 -30
-18 25 c-44 62 -91 104 -152 133 -63 31 -71 32 -186 32 -111 0 -124 -2 -178
-28 -56 -28 -154 -115 -191 -171 l-18 -28 -27 25 c-29 27 -71 52 -113 67 -30
10 -37 34 -15 47 35 22 77 92 92 154 15 66 14 76 -11 192 -10 45 -91 119 -159
146 -55 21 -79 24 -290 28 -183 4 -234 2 -248 -9z m395 -224 c15 -8 34 -24 42
-36 20 -29 20 -97 0 -126 -34 -48 -142 -80 -172 -50 -8 8 -12 48 -12 115 0 85
3 104 17 111 20 12 89 4 125 -14z m810 -366 c40 -12 96 -74 80 -89 -6 -6 -197
-13 -249 -10 -39 3 14 78 68 97 44 16 54 16 101 2z m788 -63 c64 -34 95 -101
83 -184 -4 -33 -16 -56 -44 -85 -37 -41 -38 -41 -111 -41 -61 0 -78 4 -104 24
-78 57 -88 191 -21 256 53 51 133 63 197 30z m-1530 -57 c21 -13 46 -37 54
-56 51 -107 -24 -192 -171 -192 -40 0 -74 5 -81 12 -13 13 -18 239 -5 251 3 4
42 7 85 7 63 0 87 -4 118 -22z m1016 -165 c18 -42 30 -103 20 -103 -4 0 -33
14 -66 30 -67 34 -92 37 -114 15 -26 -27 -99 -55 -141 -54 -49 0 -107 26 -134
61 -20 25 -28 68 -14 81 3 4 103 7 220 7 l214 0 15 -37z"/>
<path d="M4738 2304 c-3 -5 -7 -270 -9 -589 l-4 -580 215 -3 c224 -3 279 4
370 46 115 54 228 154 276 245 14 27 34 59 45 71 20 21 20 20 19 -161 -1 -100
1 -187 5 -193 4 -6 54 -10 126 -10 l119 0 0 201 c0 180 2 205 20 245 36 79
119 105 216 68 l42 -16 -5 -103 c-6 -110 5 -158 53 -236 66 -107 223 -181 381
-181 171 1 309 70 388 197 20 31 31 41 37 32 4 -6 8 -131 8 -277 0 -146 0
-273 0 -282 0 -16 12 -18 119 -18 99 0 120 3 125 16 3 9 6 103 6 210 0 107 3
194 8 194 4 0 23 -10 42 -21 106 -65 268 -66 370 -3 50 30 113 102 145 165 26
50 28 64 29 169 1 128 -10 167 -71 249 -74 98 -161 141 -289 141 -89 0 -131
-14 -200 -66 -36 -26 -44 -23 -44 18 l0 28 -120 0 c-107 0 -120 -2 -121 -17 0
-10 0 -54 0 -98 2 -109 -7 -119 -50 -53 -43 66 -121 129 -196 159 -82 32 -253
39 -333 13 -62 -21 -145 -67 -175 -98 -18 -18 -20 -18 -23 -4 -2 9 2 26 7 37
6 11 11 26 11 33 0 23 -80 48 -153 48 -75 0 -107 -12 -175 -67 -44 -36 -48
-34 -54 17 -3 25 -4 25 -119 30 -122 5 -149 15 -149 53 0 37 -73 151 -139 218
-62 62 -176 139 -205 139 -8 0 -31 7 -52 16 -30 13 -89 17 -265 22 -129 3
-228 1 -231 -4z m450 -274 c71 -36 115 -83 150 -159 22 -48 25 -68 25 -155 -1
-80 -6 -111 -22 -147 -51 -114 -162 -191 -276 -193 l-60 -1 -3 343 -2 342 63
0 c51 0 76 -6 125 -30z m1510 -395 c54 -37 72 -71 72 -140 0 -66 -15 -98 -65
-137 -25 -19 -41 -23 -101 -23 -79 1 -90 6 -136 69 -21 29 -28 50 -28 83 0
142 145 225 258 148z m832 10 c91 -47 114 -172 48 -257 -35 -44 -90 -63 -158
-54 -87 11 -154 116 -130 204 28 107 143 158 240 107z"/>
<path d="M4243 1840 l-72 -40 -3 28 -3 27 -120 0 -120 0 -3 -363 -2 -363 122
3 123 3 5 220 c3 140 9 227 17 240 6 11 25 34 43 50 27 26 39 30 90 30 63 0
92 -17 114 -65 6 -15 13 -114 16 -250 l5 -225 125 0 125 0 0 270 c0 262 -1
271 -23 317 -49 100 -155 158 -286 158 -76 0 -86 -3 -153 -40z"/>
<path d="M4861 913 c-20 -24 -27 -41 -21 -47 6 -6 10 -34 10 -63 0 -40 4 -53
15 -53 11 0 15 12 15 50 0 40 4 51 21 60 19 11 19 13 5 29 -20 22 -20 31 0 31
9 0 14 5 12 12 -8 24 -27 18 -57 -19z"/>
<path d="M4155 927 c-62 -39 -75 -111 -28 -159 22 -23 35 -28 75 -28 36 0 48
4 48 15 0 11 -12 15 -44 15 -35 0 -48 5 -60 22 -25 36 -20 73 15 102 34 29 49
32 68 14 10 -11 12 -9 9 7 -4 24 -52 31 -83 12z"/>
<path d="M4482 861 c-28 -38 -27 -59 2 -94 20 -25 28 -28 72 -25 l49 3 0 70 0
70 -50 3 c-46 3 -53 0 -73 -27z m94 -25 c3 -14 4 -33 2 -43 -7 -37 -88 -22
-88 17 0 48 74 71 86 26z"/>
<path d="M5174 882 c-6 -4 -19 -21 -29 -38 -18 -31 -18 -33 2 -65 17 -30 24
-34 61 -34 51 0 57 19 7 23 -52 5 -46 30 8 34 35 2 43 7 45 26 6 39 -60 77
-94 54z m57 -37 c0 -5 -12 -11 -26 -13 -18 -2 -25 1 -25 13 0 12 7 15 25 13
14 -2 26 -7 26 -13z"/>
</g>
</svg>
